# xmcd
#
# Track frame offsets: 
#        150
#        23766
#        50179
#        74621
#        100131
#
# Disc length: 1674 seconds
#
# Revision: 0
# Processed by: cddbd v1.5.2PL0 Copyright (c) Steve Scherf et al.
# Submitted via: ExactAudioCopy v0.99pb5
#
DISCID=43068805
DTITLE=Hot Tea Cold - Any Way I Can Get It
DYEAR=2011
DGENRE=Fusion
TTITLE0=Xplode
TTITLE1=Bittersweet
TTITLE2=Bottom Of The Bottle
TTITLE3=Back Burner Man
TTITLE4=Corinne
EXTD=
EXTT0=
EXTT1=
EXTT2=
EXTT3=
EXTT4=
PLAYORDER=
